<svg xmlns="http://www.w3.org/2000/svg" width="1024" height="1024" viewBox="0 0 1024 1024">
  <defs>
    <linearGradient id="bg" x1="0.12" y1="0" x2="0.9" y2="1">
      <stop offset="0" stop-color="#3768E6"/>
      <stop offset="0.5" stop-color="#274CC0"/>
      <stop offset="1" stop-color="#182C86"/>
    </linearGradient>
    <radialGradient id="bgHi" cx="0.5" cy="0.4" r="0.62">
      <stop offset="0" stop-color="#5A87F5" stop-opacity="0.5"/>
      <stop offset="1" stop-color="#5A87F5" stop-opacity="0"/>
    </radialGradient>
    <radialGradient id="vignette" cx="0.5" cy="0.5" r="0.72">
      <stop offset="0.55" stop-color="#0F1F5E" stop-opacity="0"/>
      <stop offset="1" stop-color="#0F1F5E" stop-opacity="0.35"/>
    </radialGradient>
    <linearGradient id="art" x1="0" y1="0" x2="1" y2="1">
      <stop offset="0" stop-color="#22D3EE"/>
      <stop offset="0.42" stop-color="#8B5CF6"/>
      <stop offset="0.68" stop-color="#EC4899"/>
      <stop offset="1" stop-color="#F59E0B"/>
    </linearGradient>
    <linearGradient id="btn" x1="0" y1="0" x2="1" y2="1">
      <stop offset="0" stop-color="#22C3DE"/><stop offset="1" stop-color="#0EA5C9"/>
    </linearGradient>
    <radialGradient id="glow" cx="0.5" cy="0.5" r="0.5">
      <stop offset="0" stop-color="#E4EEFF" stop-opacity="0.95"/>
      <stop offset="0.4" stop-color="#C3DBFF" stop-opacity="0.4"/>
      <stop offset="1" stop-color="#C3DBFF" stop-opacity="0"/>
    </radialGradient>
    <radialGradient id="blob1" cx="0.5" cy="0.5" r="0.5">
      <stop offset="0" stop-color="#F9A8D4" stop-opacity="0.8"/>
      <stop offset="1" stop-color="#F9A8D4" stop-opacity="0"/>
    </radialGradient>
    <radialGradient id="blob2" cx="0.5" cy="0.5" r="0.5">
      <stop offset="0" stop-color="#38BDF8" stop-opacity="0.7"/>
      <stop offset="1" stop-color="#38BDF8" stop-opacity="0"/>
    </radialGradient>
    <filter id="posterShadow" x="-30%" y="-30%" width="160%" height="160%">
      <feDropShadow dx="0" dy="22" stdDeviation="30" flood-color="#08103B" flood-opacity="0.34"/>
    </filter>
    <filter id="panelShadow" x="-30%" y="-30%" width="160%" height="160%">
      <feDropShadow dx="0" dy="6" stdDeviation="9" flood-color="#334155" flood-opacity="0.22"/>
    </filter>
    <clipPath id="artClip"><rect x="328" y="270" width="368" height="214" rx="22"/></clipPath>
  </defs>

  <rect width="1024" height="1024" rx="232" fill="url(#bg)"/>
  <rect width="1024" height="1024" rx="232" fill="url(#bgHi)"/>
  <rect width="1024" height="1024" rx="232" fill="url(#vignette)"/>

  <circle cx="806" cy="228" r="150" fill="url(#glow)"/>

  <g filter="url(#posterShadow)">
    <rect x="280" y="212" width="464" height="600" rx="42" fill="#FFFFFF"/>
  </g>

  <g filter="url(#panelShadow)">
    <rect x="328" y="270" width="368" height="214" rx="22" fill="url(#art)"/>
    <g clip-path="url(#artClip)">
      <circle cx="588" cy="418" r="140" fill="url(#blob1)"/>
      <circle cx="418" cy="420" r="120" fill="url(#blob2)"/>
    </g>
  </g>

  <rect x="328" y="524" width="330" height="30" rx="15" fill="#C7CDD9"/>
  <rect x="328" y="580" width="288" height="30" rx="15" fill="#D5DAE4"/>
  <rect x="328" y="636" width="230" height="30" rx="15" fill="#DFE3EC"/>

  <rect x="566" y="704" width="130" height="52" rx="26" fill="url(#btn)"/>

  <path d="M806 128 C 826 200 842 216 914 236 C 842 256 826 272 806 344 C 786 272 770 256 698 236 C 770 216 786 200 806 128 Z" fill="#FFFFFF"/>
</svg>
